solid OpenSCAD_Model
  facet normal 0 0 -1
    outer loop
      vertex -13 0 0
      vertex 0 61 0
      vertex 0 0 0
    endloop
  endfacet
  facet normal -0 0 -1
    outer loop
      vertex 0 61 0
      vertex -13 0 0
      vertex -13 61 0
    endloop
  endfacet
  facet normal -1 0 0
    outer loop
      vertex -13 0 0
      vertex -13 61 69
      vertex -13 61 0
    endloop
  endfacet
  facet normal -1 -0 0
    outer loop
      vertex -13 61 69
      vertex -13 0 0
      vertex -13 0 69
    endloop
  endfacet
  facet normal 0 0 1
    outer loop
      vertex 0 61 69
      vertex -1.5 59.5 69
      vertex 0 0 69
    endloop
  endfacet
  facet normal 0 0 1
    outer loop
      vertex 0 61 69
      vertex -11.5 59.5 69
      vertex -1.5 59.5 69
    endloop
  endfacet
  facet normal 0 0 1
    outer loop
      vertex -11.5 59.5 69
      vertex -13 61 69
      vertex -11.5 1.5 69
    endloop
  endfacet
  facet normal -0 0 1
    outer loop
      vertex -13 61 69
      vertex -11.5 59.5 69
      vertex 0 61 69
    endloop
  endfacet
  facet normal -0 0 1
    outer loop
      vertex -1.5 1.5 69
      vertex 0 0 69
      vertex -1.5 59.5 69
    endloop
  endfacet
  facet normal -0 0 1
    outer loop
      vertex -11.5 1.5 69
      vertex 0 0 69
      vertex -1.5 1.5 69
    endloop
  endfacet
  facet normal 0 0 1
    outer loop
      vertex -11.5 1.5 69
      vertex -13 0 69
      vertex 0 0 69
    endloop
  endfacet
  facet normal 0 0 1
    outer loop
      vertex -13 0 69
      vertex -11.5 1.5 69
      vertex -13 61 69
    endloop
  endfacet
  facet normal 1 -0 0
    outer loop
      vertex 0 0 69
      vertex 0 61 0
      vertex 0 61 69
    endloop
  endfacet
  facet normal 1 0 0
    outer loop
      vertex 0 61 0
      vertex 0 0 69
      vertex 0 0 0
    endloop
  endfacet
  facet normal 0 -1 0
    outer loop
      vertex -13 0 0
      vertex 0 0 69
      vertex -13 0 69
    endloop
  endfacet
  facet normal 0 -1 -0
    outer loop
      vertex 0 0 69
      vertex -13 0 0
      vertex 0 0 0
    endloop
  endfacet
  facet normal 0 1 -0
    outer loop
      vertex 0 61 0
      vertex -13 61 69
      vertex 0 61 69
    endloop
  endfacet
  facet normal 0 1 0
    outer loop
      vertex -13 61 69
      vertex 0 61 0
      vertex -13 61 0
    endloop
  endfacet
  facet normal -0 0 1
    outer loop
      vertex -11.5 59.5 1.5
      vertex -1.5 1.5 1.5
      vertex -1.5 59.5 1.5
    endloop
  endfacet
  facet normal 0 0 1
    outer loop
      vertex -1.5 1.5 1.5
      vertex -11.5 59.5 1.5
      vertex -11.5 1.5 1.5
    endloop
  endfacet
  facet normal 1 -0 0
    outer loop
      vertex -11.5 1.5 69
      vertex -11.5 59.5 1.5
      vertex -11.5 59.5 69
    endloop
  endfacet
  facet normal 1 0 0
    outer loop
      vertex -11.5 59.5 1.5
      vertex -11.5 1.5 69
      vertex -11.5 1.5 1.5
    endloop
  endfacet
  facet normal 0 -1 0
    outer loop
      vertex -11.5 59.5 1.5
      vertex -1.5 59.5 69
      vertex -11.5 59.5 69
    endloop
  endfacet
  facet normal 0 -1 -0
    outer loop
      vertex -1.5 59.5 69
      vertex -11.5 59.5 1.5
      vertex -1.5 59.5 1.5
    endloop
  endfacet
  facet normal -1 0 0
    outer loop
      vertex -1.5 1.5 1.5
      vertex -1.5 59.5 69
      vertex -1.5 59.5 1.5
    endloop
  endfacet
  facet normal -1 -0 0
    outer loop
      vertex -1.5 59.5 69
      vertex -1.5 1.5 1.5
      vertex -1.5 1.5 69
    endloop
  endfacet
  facet normal 0 1 -0
    outer loop
      vertex -1.5 1.5 1.5
      vertex -11.5 1.5 69
      vertex -1.5 1.5 69
    endloop
  endfacet
  facet normal 0 1 0
    outer loop
      vertex -11.5 1.5 69
      vertex -1.5 1.5 1.5
      vertex -11.5 1.5 1.5
    endloop
  endfacet
endsolid OpenSCAD_Model
